<svg width="48" height="48" viewBox="0 0 48 48" fill="none" xmlns="http://www.w3.org/2000/svg">
<circle cx="24" cy="24" r="23.4667" stroke="#9A948C" stroke-width="1.06667"/>
<path d="M16.2739 28.3665C15.0828 26.3569 14.6661 23.9816 15.1022 21.6866C15.5382 19.3916 16.797 17.3347 18.6421 15.902C20.4873 14.4693 22.792 13.7594 25.1234 13.9055C27.4549 14.0516 29.6529 15.0437 31.3048 16.6956C32.9566 18.3474 33.9487 20.5454 34.0948 22.8769C34.241 25.2084 33.531 27.513 32.0983 29.3582C30.6656 31.2034 28.6087 32.4621 26.3137 32.8982C24.0187 33.3342 21.6435 32.9176 19.6339 31.7265V31.7265L16.3139 32.6665C16.1778 32.7063 16.0336 32.7087 15.8963 32.6736C15.759 32.6385 15.6337 32.5671 15.5335 32.4669C15.4333 32.3667 15.3619 32.2413 15.3267 32.104C15.2916 31.9667 15.2941 31.8225 15.3339 31.6865L16.2739 28.3665Z" stroke="#9A948C" stroke-width="1.06667" stroke-linecap="round" stroke-linejoin="round"/>
<path d="M26.9436 29.0696C25.891 29.0722 24.8482 28.8668 23.8752 28.4652C22.9022 28.0636 22.0181 27.4737 21.2738 26.7294C20.5295 25.985 19.9396 25.101 19.538 24.128C19.1364 23.155 18.931 22.1122 18.9336 21.0596C18.9363 20.3187 19.2324 19.6091 19.7572 19.0861C20.2821 18.5632 20.9927 18.2695 21.7336 18.2696V18.2696C21.8559 18.2686 21.9761 18.3006 22.0817 18.3622C22.1873 18.4238 22.2743 18.5127 22.3336 18.6196L23.5036 20.6596C23.5732 20.7836 23.6089 20.9237 23.6071 21.0659C23.6054 21.2081 23.5662 21.3473 23.4936 21.4696L22.5536 23.0396C23.0351 24.1106 23.8925 24.9681 24.9636 25.4496L26.5336 24.5096C26.6559 24.4369 26.7951 24.3978 26.9373 24.396C27.0795 24.3943 27.2196 24.43 27.3436 24.4996L29.3836 25.6696C29.4905 25.7289 29.5794 25.8159 29.641 25.9215C29.7026 26.0271 29.7346 26.1473 29.7336 26.2696C29.731 27.0096 29.4365 27.7188 28.9142 28.243C28.3918 28.7673 27.6837 29.0643 26.9436 29.0696V29.0696Z" stroke="#9A948C" stroke-width="1.06667" stroke-linecap="round" stroke-linejoin="round"/>
</svg>
